<svg width="32" height="33" viewBox="0 0 32 33" fill="none" xmlns="http://www.w3.org/2000/svg">
<g clip-path="url(#clip0_32_7892)">
<path d="M30.7864 7.97688C30.1507 7.31091 29.2729 6.91739 28.2739 6.91739H23.2489V6.85684C23.2489 6.10007 22.9462 5.37356 22.4316 4.88922C21.917 4.37461 21.2207 4.0719 20.464 4.0719H11.3826C10.5956 4.0719 9.89933 4.37461 9.38472 4.88922C8.87012 5.40383 8.5674 6.10007 8.5674 6.85684V6.91739H3.57267C2.57372 6.91739 1.69586 7.31091 1.06016 7.97688C0.424467 8.61257 0.000671387 9.5207 0.000671387 10.4894V25.5644C0.000671387 26.5634 0.394196 27.4412 1.06016 28.0769C1.69586 28.7126 2.60399 29.1364 3.57267 29.1364H28.2739C29.2729 29.1364 30.1507 28.7429 30.7864 28.0769C31.4221 27.4412 31.8459 26.5331 31.8459 25.5644V10.4894C31.8459 9.49043 31.4524 8.61257 30.7864 7.97688ZM30.2718 25.5644H30.2415C30.2415 26.1093 30.0296 26.5936 29.6664 26.9569C29.3031 27.3201 28.8188 27.532 28.2739 27.532H3.57267C3.02779 27.532 2.54345 27.3201 2.18019 26.9569C1.81694 26.5936 1.60504 26.1093 1.60504 25.5644V10.4894C1.60504 9.9445 1.81694 9.46016 2.18019 9.09691C2.54345 8.73365 3.02779 8.52176 3.57267 8.52176H9.415C9.86906 8.52176 10.2323 8.1585 10.2323 7.70444V6.82657C10.2323 6.49359 10.3534 6.19088 10.5653 5.97898C10.7772 5.76708 11.0799 5.646 11.4129 5.646H20.464C20.7969 5.646 21.0997 5.76708 21.3116 5.97898C21.5235 6.19088 21.6445 6.49359 21.6445 6.82657V7.70444C21.6445 8.1585 22.0078 8.52176 22.4619 8.52176H28.3042C28.8491 8.52176 29.3334 8.73365 29.6967 9.09691C30.0599 9.46016 30.2718 9.9445 30.2718 10.4894V25.5644Z" fill="white"/>
<path d="M15.9233 10.5803C13.8648 10.5803 11.988 11.4279 10.6561 12.7598C9.29388 14.122 8.47656 15.9686 8.47656 18.027C8.47656 20.0855 9.32415 21.9623 10.6561 23.2942C12.0183 24.6564 13.8648 25.4737 15.9233 25.4737C17.9817 25.4737 19.8585 24.6261 21.1904 23.2942C22.5526 21.932 23.37 20.0855 23.37 18.027C23.37 15.9686 22.5224 14.0918 21.1904 12.7598C19.8585 11.4279 17.9817 10.5803 15.9233 10.5803ZM20.0401 22.1742C18.9806 23.2034 17.5276 23.8694 15.9233 23.8694C14.3189 23.8694 12.8659 23.2034 11.8064 22.1742C10.7469 21.1147 10.1112 19.6617 10.1112 18.0573C10.1112 16.4529 10.7772 14.9999 11.8064 13.9404C12.8659 12.8809 14.3189 12.2452 15.9233 12.2452C17.5276 12.2452 18.9806 12.9112 20.0401 13.9404C21.0996 14.9999 21.7353 16.4529 21.7353 18.0573C21.7656 19.6617 21.0996 21.1147 20.0401 22.1742Z" fill="white"/>
<path d="M26.6998 13.5165C27.519 13.5165 28.1831 12.8524 28.1831 12.0332C28.1831 11.214 27.519 10.5499 26.6998 10.5499C25.8806 10.5499 25.2166 11.214 25.2166 12.0332C25.2166 12.8524 25.8806 13.5165 26.6998 13.5165Z" fill="white"/>
</g>
<defs>
<clipPath id="clip0_32_7892">
<rect width="31.8452" height="31.8452" fill="white" transform="translate(0.000671387 0.681519)"/>
</clipPath>
</defs>
</svg>
