<svg width="40" height="40" viewBox="0 0 40 40" fill="none" xmlns="http://www.w3.org/2000/svg">
<path d="M28.7296 11H10.7263C9.22037 11.0024 8.0008 12.2228 8 13.7287V23.8656C8.0008 25.3716 9.22037 26.5919 10.7263 26.5935H17.335L14.9547 27.8561C14.249 28.1838 14.7399 29.2634 15.4527 28.9404C15.4933 28.9094 19.6786 26.7057 19.728 26.6731L23.9388 28.911C24.0247 28.9571 24.1202 28.981 24.218 28.981C24.8266 29.0056 25.0494 28.1226 24.5012 27.8561L22.121 26.5935H28.7296C30.2348 26.5919 31.4543 25.3716 31.4559 23.8664V13.7287C31.4551 12.2228 30.2355 11.0024 28.7296 11ZM30.2626 23.8648C30.2626 24.7121 29.5768 25.3986 28.7296 25.3994H10.7263C9.87988 25.3986 9.19412 24.7121 9.19332 23.8656V13.7287C9.19332 12.8815 9.87908 12.1949 10.7263 12.1941H28.7296C29.576 12.1949 30.2618 12.8815 30.2626 13.7279V23.8648Z" fill="#625B53"/>
<path d="M18.6762 16.0391H14.1846C13.8552 16.0391 13.5879 16.3064 13.5879 16.6357C13.5879 16.9651 13.8552 17.2324 14.1846 17.2324H15.8337V20.9524C15.8337 21.2817 16.101 21.549 16.4304 21.549C16.7597 21.549 17.027 21.2817 17.027 20.9524V17.2324H18.6762C19.4566 17.2292 19.4566 16.043 18.6762 16.0391Z" fill="#625B53"/>
<path d="M25.5346 16.0997C25.2387 15.9549 24.8815 16.0783 24.7367 16.3742L23.1679 19.5898L21.5998 16.3726C21.2538 15.6725 20.1846 16.1928 20.5251 16.8977L22.6317 21.2143C22.8369 21.6479 23.498 21.6511 23.7041 21.2143L25.8091 16.8977C25.9539 16.6017 25.8306 16.2445 25.5346 16.0997Z" fill="#625B53"/>
</svg>
