<svg width="40" height="40" viewBox="0 0 40 40" fill="none" xmlns="http://www.w3.org/2000/svg">
<g clip-path="url(#clip0_32_8001)">
<path d="M21.6473 14.582H17.5352V26.4207H18.8828V22.6679H21.6473C23.8385 22.6679 25.6211 20.8853 25.6211 18.6942V18.5557C25.6211 16.3647 23.8385 14.582 21.6473 14.582ZM24.2734 18.6942C24.2734 20.1422 23.0954 21.3203 21.6473 21.3203H18.8828V15.9297H21.6473C23.0954 15.9297 24.2734 17.1078 24.2734 18.5558V18.6942Z" fill="#625B53"/>
<path d="M28.6318 12.3682C26.4597 10.1962 23.5718 9 20.5 9C17.4282 9 14.5403 10.1962 12.3682 12.3682C10.1962 14.5403 9 17.4283 9 20.5C9 23.5717 10.1962 26.4597 12.3683 28.6317C14.5403 30.8038 17.4282 32 20.5 32C23.5718 32 26.4597 30.8038 28.6318 28.6318C30.8038 26.4597 32 23.5717 32 20.5C32 17.4283 30.8038 14.5403 28.6318 12.3682ZM27.6788 27.6788C25.7612 29.5963 23.2118 30.6523 20.5 30.6523C17.7882 30.6523 15.2387 29.5963 13.3212 27.6788C11.4037 25.7612 10.3477 23.2118 10.3477 20.5C10.3477 17.7882 11.4037 15.2387 13.3212 13.3212C15.2387 11.4037 17.7882 10.3477 20.5 10.3477C23.2118 10.3477 25.7612 11.4037 27.6788 13.3212C29.5963 15.2387 30.6523 17.7882 30.6523 20.5C30.6523 23.2118 29.5963 25.7612 27.6788 27.6788Z" fill="#625B53"/>
</g>
<defs>
<clipPath id="clip0_32_8001">
<rect width="23" height="23" fill="white" transform="translate(9 9)"/>
</clipPath>
</defs>
</svg>
