<svg width="40" height="40" viewBox="0 0 40 40" fill="none" xmlns="http://www.w3.org/2000/svg">
<g clip-path="url(#clip0_32_8143)">
<path d="M29.9799 15.7925C29.9799 15.3678 29.6356 15.0234 29.2109 15.0234H10.7886C10.3639 15.0234 10.0195 15.3677 10.0195 15.7925C10.0195 19.7127 12.2919 23.1117 15.5883 24.743L14.1824 32.0864C14.1025 32.5035 14.3759 32.9064 14.7931 32.9863C14.842 32.9957 14.8906 33.0002 14.9385 33.0002C15.3001 33.0002 15.6225 32.7439 15.693 32.3756L16.3532 28.9273H23.6459L24.3065 32.3757C24.377 32.744 24.6992 33.0002 25.0609 33.0002C25.1088 33.0002 25.1575 32.9957 25.2064 32.9863C25.6235 32.9064 25.8969 32.5035 25.817 32.0864L24.4103 24.7435C27.7072 23.1122 29.9799 19.713 29.9799 15.7925ZM16.6476 27.3893L17.0428 25.3255C17.9775 25.616 18.9707 25.7726 19.9998 25.7726C21.0286 25.7726 22.0215 25.6161 22.956 25.3257L23.3514 27.3893H16.6476ZM19.9997 24.2347C15.6038 24.2347 11.9819 20.8576 11.5923 16.5615H28.4071C28.0175 20.8576 24.3956 24.2347 19.9997 24.2347Z" fill="#625B53"/>
<path d="M17.0487 10.971C17.229 10.7856 17.665 10.277 17.8189 9.5616C17.946 8.97076 17.9135 8.08504 17.0372 7.22135C16.7348 6.92321 16.2479 6.92667 15.9497 7.22917C15.6516 7.53157 15.6551 8.01851 15.9575 8.31665C16.3687 8.72193 16.3586 9.03667 16.3153 9.23828C16.2415 9.58145 15.9948 9.84866 15.9461 9.89874C15.7657 10.0842 15.3297 10.5928 15.1759 11.3082C15.0487 11.899 15.0812 12.7847 15.9576 13.6484C16.1074 13.7961 16.3024 13.8697 16.4974 13.8697C16.696 13.8697 16.8946 13.7932 17.0451 13.6405C17.3432 13.3381 17.3397 12.8512 17.0372 12.5531C16.6261 12.1478 16.6362 11.833 16.6795 11.6314C16.7533 11.2884 17 11.0212 17.0487 10.971Z" fill="#625B53"/>
<path d="M20.5506 10.971C20.731 10.7856 21.167 10.277 21.3209 9.5616C21.448 8.97076 21.4155 8.08504 20.5391 7.22135C20.2367 6.92321 19.7498 6.92667 19.4517 7.22917C19.1535 7.53157 19.157 8.01851 19.4595 8.31665C19.8706 8.72193 19.8605 9.03667 19.8172 9.23828C19.7434 9.58145 19.4968 9.84866 19.4481 9.89874C19.2677 10.0842 18.8317 10.5928 18.6778 11.3082C18.5507 11.899 18.5832 12.7847 19.4595 13.6484C19.6093 13.7961 19.8043 13.8697 19.9993 13.8697C20.1979 13.8697 20.3965 13.7932 20.547 13.6405C20.8451 13.3381 20.8416 12.8512 20.5392 12.5531C20.1281 12.1478 20.1381 11.833 20.1814 11.6314C20.2552 11.2884 20.5019 11.0212 20.5506 10.971Z" fill="#625B53"/>
<path d="M24.0546 10.971C24.235 10.7855 24.671 10.277 24.8249 9.56157C24.952 8.97073 24.9195 8.085 24.0432 7.22132C23.7408 6.92318 23.2539 6.92664 22.9557 7.22914C22.6576 7.53154 22.6611 8.01848 22.9635 8.31662C23.3746 8.7219 23.3646 9.03664 23.3213 9.23824C23.2475 9.58142 23.0008 9.84863 22.9521 9.8987C22.7717 10.0842 22.3357 10.5927 22.1818 11.3081C22.0547 11.899 22.0872 12.7847 22.9636 13.6484C23.1134 13.7961 23.3084 13.8697 23.5034 13.8697C23.702 13.8697 23.9006 13.7932 24.051 13.6405C24.3492 13.3381 24.3457 12.8512 24.0432 12.553C23.6321 12.1478 23.6421 11.833 23.6855 11.6314C23.7592 11.2883 24.0059 11.0211 24.0546 10.971Z" fill="#625B53"/>
</g>
<defs>
<clipPath id="clip0_32_8143">
<rect width="26" height="26" fill="white" transform="translate(7 7)"/>
</clipPath>
</defs>
</svg>
