<svg width="40" height="40" viewBox="0 0 40 40" fill="none" xmlns="http://www.w3.org/2000/svg">
<g clip-path="url(#clip0_32_8016)">
<mask id="mask0_32_8016" style="mask-type:luminance" maskUnits="userSpaceOnUse" x="8" y="8" width="25" height="25">
<path d="M8 8H33V33H8V8Z" fill="white"/>
</mask>
<g mask="url(#mask0_32_8016)">
<path d="M14.6172 21.8633C14.6172 20.9349 15.3698 20.1822 16.2983 20.1822C17.2267 20.1822 17.9793 20.9349 17.9793 21.8633" stroke="#625B53" stroke-width="1.28906" stroke-miterlimit="10"/>
<path d="M23.0215 21.8633C23.0215 20.9349 23.7741 20.1822 24.7025 20.1822C25.631 20.1822 26.3836 20.9349 26.3836 21.8633" stroke="#625B53" stroke-width="1.28906" stroke-miterlimit="10"/>
<path d="M17.6035 25.2265C18.1883 26.2175 19.2665 26.8828 20.5005 26.8828C21.7346 26.8828 22.8127 26.2175 23.3976 25.2265" stroke="#625B53" stroke-width="1.28906" stroke-miterlimit="10"/>
<path d="M32.2676 21.5703C32.2676 22.9463 31.1655 24.0649 29.7954 24.0908C28.688 28.186 24.9458 31.1992 20.5 31.1992C16.0542 31.1992 12.312 28.186 11.2046 24.0908C9.83447 24.0649 8.73242 22.9463 8.73242 21.5703C8.73242 20.874 9.01465 20.2437 9.4707 19.7871C9.9165 19.3418 10.5278 19.0625 11.2046 19.0498C12.312 14.9546 16.0542 11.9414 20.5 11.9414C24.9458 11.9414 28.688 14.9546 29.7954 19.0498C30.4722 19.0625 31.0835 19.3418 31.5293 19.7871C31.9854 20.2437 32.2676 20.874 32.2676 21.5703Z" stroke="#625B53" stroke-width="1.28906" stroke-miterlimit="10"/>
<path d="M17.3675 15.0737C17.3675 16.8042 18.7703 18.207 20.5008 18.207C22.2313 18.207 23.6342 16.8042 23.6342 15.0737C23.6342 13.3432 22.2313 11.9403 20.5008 11.9403H20.0098C18.4241 11.9403 17.1387 10.6549 17.1387 9.06919" stroke="#625B53" stroke-width="1.28906" stroke-miterlimit="10"/>
<path d="M20.4997 11.9414H16.6465C15.0608 11.9414 13.7754 10.656 13.7754 9.07031" stroke="#625B53" stroke-width="1.28906" stroke-miterlimit="10"/>
</g>
</g>
<defs>
<clipPath id="clip0_32_8016">
<rect width="25" height="25" fill="white" transform="translate(8 8)"/>
</clipPath>
</defs>
</svg>
