<svg width="40" height="40" viewBox="0 0 40 40" fill="none" xmlns="http://www.w3.org/2000/svg">
<g clip-path="url(#clip0_32_8134)">
<path d="M24.3794 21.188C23.3444 19.5734 21.5818 18.6094 19.6642 18.6094C17.7467 18.6094 15.9839 19.5734 14.9491 21.188L12.4553 25.0785C12.0415 25.7241 11.8506 26.4696 11.903 27.2345C11.9555 27.9996 12.2466 28.7121 12.7448 29.2952C13.2433 29.8781 13.9021 30.2764 14.6498 30.4473C15.3975 30.6181 16.1639 30.5453 16.8662 30.2366L16.912 30.2162C18.6792 29.4545 20.6991 29.4613 22.462 30.2366C22.9166 30.4365 23.3983 30.5375 23.8844 30.5375C24.1486 30.5375 24.4145 30.5075 24.6779 30.4475C25.4256 30.2768 26.0843 29.8784 26.583 29.2955C27.0814 28.7126 27.3727 28 27.4253 27.2349C27.4779 26.4696 27.287 25.7241 26.8733 25.0783L24.3794 21.188ZM25.5584 28.4192C24.9241 29.1608 23.8979 29.3952 23.0047 29.0025C21.9431 28.5355 20.8035 28.3021 19.6636 28.3021C18.5248 28.3021 17.3854 28.5354 16.3245 29.0018L16.2943 29.0151C15.408 29.3899 14.3969 29.1525 13.7696 28.4192C13.1359 27.6775 13.0638 26.6274 13.5902 25.806L16.0843 21.9155C16.8701 20.6896 18.2082 19.9577 19.6642 19.9577C21.1201 19.9577 22.4585 20.6896 23.2444 21.9155L25.7381 25.8058C26.2647 26.6276 26.1924 27.6778 25.5584 28.4192Z" fill="#625B53"/>
<path d="M13.1281 21.1834C13.87 20.8984 14.4336 20.3006 14.7153 19.4999C14.9831 18.738 14.9611 17.8778 14.6532 17.0776C14.345 16.278 13.7845 15.6252 13.0751 15.2393C12.3295 14.8341 11.5106 14.7682 10.7699 15.0537C9.27973 15.6266 8.5959 17.468 9.24569 19.1595C9.76474 20.5057 10.9754 21.3555 12.1993 21.3555C12.5118 21.3555 12.8252 21.3001 13.1281 21.1834ZM10.5038 18.6751C10.121 17.6784 10.4573 16.6182 11.2542 16.3118C11.3981 16.2564 11.5502 16.2288 11.7055 16.2288C11.9452 16.2288 12.1928 16.2943 12.4311 16.424C12.8596 16.6568 13.202 17.0611 13.395 17.5621C13.5878 18.0634 13.605 18.5927 13.4432 19.0526C13.295 19.4741 13.0112 19.784 12.6445 19.9249L12.6438 19.9252C11.848 20.232 10.888 19.671 10.5038 18.6751Z" fill="#625B53"/>
<path d="M17.9679 18.1365C19.8308 18.1365 21.3464 16.4098 21.3464 14.2874C21.3464 12.1645 19.8308 10.4375 17.9679 10.4375C16.1053 10.4375 14.5898 12.1645 14.5898 14.2874C14.5898 16.4098 16.1053 18.1365 17.9679 18.1365ZM17.9679 11.7857C19.0873 11.7857 19.9982 12.908 19.9982 14.2874C19.9982 15.6663 19.0873 16.7883 17.9679 16.7883C16.8486 16.7883 15.938 15.6663 15.938 14.2874C15.938 12.908 16.8486 11.7857 17.9679 11.7857Z" fill="#625B53"/>
<path d="M23.8007 19.0825H23.8008C24.0874 19.1776 24.3797 19.223 24.6708 19.223C26.0294 19.223 27.3533 18.2342 27.8585 16.7146C28.1495 15.8398 28.1304 14.9149 27.8047 14.1104C27.4639 13.2682 26.8324 12.6569 26.0262 12.3888C25.2201 12.121 24.3478 12.2326 23.5706 12.7032C22.8282 13.153 22.2593 13.8822 21.9689 14.757C21.3556 16.6023 22.1773 18.5427 23.8007 19.0825ZM23.2483 15.1822C23.4379 14.611 23.8005 14.1404 24.2692 13.8564C24.7028 13.5937 25.1759 13.5269 25.601 13.6682C26.026 13.8096 26.3647 14.1461 26.5549 14.6161C26.7604 15.1239 26.7692 15.7181 26.5791 16.2892C26.2003 17.4291 25.1446 18.1082 24.226 17.8031C23.3081 17.4977 22.8694 16.3221 23.2483 15.1822Z" fill="#625B53"/>
<path d="M30.9164 18.6325L30.9159 18.6319C29.6312 17.683 27.71 18.0943 26.6327 19.5493C25.5565 21.0051 25.7248 22.9622 27.0075 23.9118C27.4754 24.2584 28.0281 24.4241 28.5938 24.4241C29.5798 24.4241 30.6057 23.9208 31.2913 22.9953C32.3674 21.5396 32.1993 19.5825 30.9164 18.6325ZM30.2077 22.1932C29.5716 23.0518 28.4961 23.3366 27.8098 22.8283C27.124 22.3206 27.0823 21.2092 27.7166 20.3511C28.1383 19.7815 28.7542 19.4646 29.3219 19.4646C29.609 19.4646 29.8838 19.5456 30.1147 19.7164C30.7999 20.2246 30.8415 21.3357 30.2077 22.1932Z" fill="#625B53"/>
</g>
<defs>
<clipPath id="clip0_32_8134">
<rect width="23" height="23" fill="white" transform="translate(9 9)"/>
</clipPath>
</defs>
</svg>
