<svg width="40" height="40" viewBox="0 0 40 40" fill="none" xmlns="http://www.w3.org/2000/svg">
<g clip-path="url(#clip0_32_8065)">
<path d="M29.5992 8H10.3992C9.73762 8 9.19922 8.53841 9.19922 9.2V29.2C9.19922 29.8616 9.73762 30.4 10.3992 30.4H29.5992C30.2608 30.4 30.7992 29.8616 30.7992 29.2V9.2C30.7992 8.53841 30.2608 8 29.5992 8ZM29.9992 29.2C29.9992 29.4208 29.82 29.6 29.5992 29.6H10.3992C10.1788 29.6 9.99923 29.4208 9.99923 29.2V9.2C9.99923 8.97959 10.1788 8.80002 10.3992 8.80002H29.5992C29.82 8.80002 29.9992 8.97959 29.9992 9.2V29.2Z" fill="#625B53"/>
<path d="M22.8004 14.8008C19.2716 14.8008 16.4004 17.672 16.4004 21.2008C16.4004 24.7296 19.2716 27.6007 22.8004 27.6007C26.3292 27.6007 29.2004 24.7296 29.2004 21.2008C29.2004 17.672 26.3292 14.8008 22.8004 14.8008ZM22.8004 26.8008C19.7124 26.8008 17.2004 24.2888 17.2004 21.2008C17.2004 18.1127 19.7123 15.6007 22.8004 15.6007C25.8884 15.6007 28.4004 18.1128 28.4004 21.2008C28.4004 24.2887 25.8884 26.8008 22.8004 26.8008Z" fill="#625B53"/>
<path d="M14.0004 29.6016H10.8004C10.5796 29.6016 10.4004 29.7808 10.4004 30.0015V31.2015C10.4004 31.6435 10.7584 32.0016 11.2004 32.0016H13.6004C14.0424 32.0016 14.4004 31.6436 14.4004 31.2015V30.0015C14.4004 29.7808 14.2212 29.6016 14.0004 29.6016ZM13.6004 31.2015H11.2004V30.4015H13.6004V31.2015Z" fill="#625B53"/>
<path d="M29.1996 29.6016H25.9996C25.7788 29.6016 25.5996 29.7808 25.5996 30.0015V31.2015C25.5996 31.6435 25.9576 32.0016 26.3996 32.0016H28.7996C29.2416 32.0016 29.5996 31.6436 29.5996 31.2015V30.0015C29.5996 29.7808 29.4204 29.6016 29.1996 29.6016ZM28.7996 31.2015H26.3996V30.4015H28.7996V31.2015Z" fill="#625B53"/>
<path d="M30.3992 26.8008H9.5992C9.37842 26.8008 9.19922 26.98 9.19922 27.2008C9.19922 27.4215 9.37842 27.6008 9.5992 27.6008H30.3992C30.62 27.6008 30.7992 27.4215 30.7992 27.2008C30.7992 26.98 30.62 26.8008 30.3992 26.8008Z" fill="#625B53"/>
<path d="M30.3992 13.1992H9.5992C9.37842 13.1992 9.19922 13.3784 9.19922 13.5992C9.19922 13.82 9.37842 13.9992 9.5992 13.9992H30.3992C30.62 13.9992 30.7992 13.82 30.7992 13.5993C30.7992 13.3785 30.62 13.1992 30.3992 13.1992Z" fill="#625B53"/>
<path d="M20.18 26.1528C19.6696 25.882 19.204 25.534 18.8 25.1208C18.4208 24.7336 18.1 24.2936 17.8472 23.8144C16.4044 21.0788 17.4524 17.6916 20.188 16.2488C20.2596 16.2112 20.318 16.1528 20.3556 16.0812C20.4589 15.8856 20.3836 15.6436 20.188 15.5408C19.2672 15.0548 18.242 14.8008 17.2012 14.8008C13.6668 14.8004 10.8008 17.6655 10.8008 21.2C10.8004 24.7348 13.6652 27.6004 17.2 27.6007C18.2384 27.5979 19.2608 27.3443 20.18 26.8607C20.2515 26.8231 20.3099 26.7647 20.3475 26.6932C20.4508 26.4975 20.3756 26.2556 20.18 26.1528ZM17.2012 26.8008C14.1084 26.8012 11.6012 24.2944 11.6008 21.2016C11.6004 18.1087 14.1072 15.6012 17.2 15.6007C17.8648 15.5992 18.5248 15.7171 19.148 15.9488C18.8204 16.1768 18.5148 16.4352 18.236 16.7207C17.9864 16.9751 17.7584 17.25 17.5544 17.5423C15.5328 20.4419 16.2444 24.4311 19.144 26.4527C18.522 26.6827 17.8644 26.8008 17.2012 26.8008Z" fill="#625B53"/>
<path d="M22.8004 14.8008C19.2716 14.8008 16.4004 17.672 16.4004 21.2008C16.4004 24.7296 19.2716 27.6007 22.8004 27.6007C26.3292 27.6007 29.2004 24.7296 29.2004 21.2008C29.2004 17.672 26.3292 14.8008 22.8004 14.8008ZM22.8004 26.8008C19.7124 26.8008 17.2004 24.2888 17.2004 21.2008C17.2004 18.1127 19.7123 15.6007 22.8004 15.6007C25.8884 15.6007 28.4004 18.1128 28.4004 21.2008C28.4004 24.2887 25.8884 26.8008 22.8004 26.8008Z" fill="#625B53"/>
</g>
<defs>
<clipPath id="clip0_32_8065">
<rect width="24" height="24" fill="white" transform="translate(8 8)"/>
</clipPath>
</defs>
</svg>
