<svg width="40" height="40" viewBox="0 0 40 40" fill="none" xmlns="http://www.w3.org/2000/svg">
<g clip-path="url(#clip0_32_8055)">
<path d="M27.7782 12.2218C25.7005 10.1442 22.9382 9 20 9C17.0618 9 14.2994 10.1442 12.2218 12.2218C10.1442 14.2994 9 17.0618 9 20C9 22.9382 10.1442 25.7005 12.2218 27.7782C14.2994 29.8558 17.0618 31 20 31C22.9382 31 25.7005 29.8558 27.7782 27.7782C29.8558 25.7005 31 22.9382 31 20C31 17.0618 29.8558 14.2995 27.7782 12.2218ZM20 29.7109C14.6454 29.7109 10.2891 25.3546 10.2891 20C10.2891 14.6454 14.6454 10.2891 20 10.2891C25.3546 10.2891 29.7109 14.6454 29.7109 20C29.7109 25.3546 25.3546 29.7109 20 29.7109Z" fill="#625B53"/>
<path d="M25.2502 16.4778C24.9985 16.2262 24.5904 16.2262 24.3387 16.4778L18.6471 22.1694L15.6511 19.1733C15.3994 18.9217 14.9913 18.9217 14.7396 19.1733C14.4879 19.425 14.4879 19.8331 14.7396 20.0848L18.1914 23.5366C18.3172 23.6625 18.4822 23.7254 18.6471 23.7254C18.812 23.7254 18.977 23.6625 19.1028 23.5366L25.2502 17.3893C25.5019 17.1376 25.5019 16.7295 25.2502 16.4778Z" fill="#625B53"/>
</g>
<defs>
<clipPath id="clip0_32_8055">
<rect width="22" height="22" fill="white" transform="translate(9 9)"/>
</clipPath>
</defs>
</svg>
