<svg width="40" height="40" viewBox="0 0 40 40" fill="none" xmlns="http://www.w3.org/2000/svg">
<g clip-path="url(#clip0_32_8101)">
<path d="M32 26.0181H30.6816V17.7827C30.6816 16.6675 29.7743 15.7603 28.6591 15.7603H26.4025V13.7861C26.6923 13.684 26.9569 13.5155 27.1781 13.2882C27.5621 12.8935 27.7652 12.3726 27.7501 11.8216C27.7204 10.7374 26.8009 9.85547 25.7004 9.85547H13.9812C12.8807 9.85547 11.9612 10.7375 11.9315 11.8216C11.9163 12.3727 12.1195 12.8935 12.5035 13.2882C12.7247 13.5155 12.9893 13.6841 13.2791 13.7862V15.7603H11.0225C9.90728 15.7603 9 16.6676 9 17.7828V30.0631H10.3483V31.1438H11.6966V30.0631H27.985V31.1438H29.3333V30.0631H30.6816V27.3665H32V26.0181ZM13.9532 12.552C13.7696 12.552 13.598 12.4795 13.4699 12.3479C13.3419 12.2164 13.2742 12.0426 13.2793 11.8585C13.2892 11.4974 13.6041 11.2037 13.9812 11.2037H25.7003C26.0775 11.2037 26.3924 11.4974 26.4023 11.8585C26.4073 12.0426 26.3396 12.2164 26.2117 12.3479C26.0836 12.4795 25.912 12.552 25.7284 12.552H25.0542V15.7602H14.6273V12.552H13.9532ZM29.3333 28.7147H10.3483V17.7827C10.3483 17.411 10.6507 17.1086 11.0225 17.1086H28.6591C29.0308 17.1086 29.3333 17.411 29.3333 17.7827V28.7147Z" fill="#625B53"/>
</g>
<defs>
<clipPath id="clip0_32_8101">
<rect width="23" height="23" fill="white" transform="translate(9 9)"/>
</clipPath>
</defs>
</svg>
