<svg width="40" height="40" viewBox="0 0 40 40" fill="none" xmlns="http://www.w3.org/2000/svg">
<g clip-path="url(#clip0_32_8093)">
<path d="M29.4023 18.5149C30.1858 18.701 30.8052 19.3406 30.9425 20.1646L31.9813 26.3969C32.1047 27.1378 31.6042 27.8386 30.8632 27.9621C30.7894 27.9744 30.7146 27.9806 30.6397 27.9806H9.68057C9.21637 27.9806 8.88865 27.5259 9.03542 27.0855L10.2057 23.5748C11.2239 20.5202 14.0825 18.4598 17.3024 18.4598H28.0421V15.3995C28.0421 14.8361 27.5854 14.3794 27.0221 14.3794H17.1612C16.7856 14.3794 16.4811 14.075 16.4811 13.6994C16.4811 13.3238 16.7856 13.0193 17.1612 13.0193H27.0221C28.3366 13.0193 29.4023 14.0849 29.4023 15.3995V18.5149ZM10.6241 26.6205H30.6397L29.6009 20.3882C29.5463 20.0603 29.2625 19.82 28.9301 19.82H17.3024C14.6679 19.82 12.329 21.5057 11.496 24.005L10.6241 26.6205ZM21.2416 24.5803C20.6782 24.5803 20.2215 24.1236 20.2215 23.5603C20.2215 22.9969 20.6782 22.5402 21.2416 22.5402C21.8049 22.5402 22.2616 22.9969 22.2616 23.5603C22.2616 24.1236 21.805 24.5803 21.2416 24.5803Z" fill="#625B53"/>
</g>
<defs>
<clipPath id="clip0_32_8093">
<rect width="23" height="23" fill="white" transform="translate(9 9)"/>
</clipPath>
</defs>
</svg>
