<svg width="40" height="40" viewBox="0 0 40 40" fill="none" xmlns="http://www.w3.org/2000/svg">
<path d="M31.8525 10.9727H8.14277C7.20904 10.9727 6.44922 11.6903 6.44922 12.5721V26.4341C6.44922 27.316 7.20904 28.0336 8.14277 28.0336H31.8525C32.7862 28.0336 33.546 27.316 33.546 26.4341V12.5721C33.546 11.6903 32.7862 10.9727 31.8525 10.9727ZM26.7718 26.9673H8.14277C7.83116 26.9673 7.57823 26.7274 7.57823 26.4341V12.5721C7.57823 12.2778 7.83116 12.0389 8.14277 12.0389H26.7718V26.9673ZM32.417 26.4342C32.417 26.7274 32.1641 26.9673 31.8525 26.9673H27.9008V12.039H31.8525C32.1641 12.039 32.417 12.2779 32.417 12.5722V26.4342Z" fill="#625B53"/>
<path d="M30.1603 15.2302C30.7838 15.2302 31.2893 14.7528 31.2893 14.1639C31.2893 13.5751 30.7838 13.0977 30.1603 13.0977C29.5367 13.0977 29.0312 13.5751 29.0312 14.1639C29.0312 14.7528 29.5367 15.2302 30.1603 15.2302Z" fill="#625B53"/>
<path d="M30.1603 18.4334C30.7838 18.4334 31.2893 17.956 31.2893 17.3671C31.2893 16.7782 30.7838 16.3008 30.1603 16.3008C29.5367 16.3008 29.0312 16.7782 29.0312 17.3671C29.0312 17.956 29.5367 18.4334 30.1603 18.4334Z" fill="#625B53"/>
<path d="M30.1603 21.6404C30.7838 21.6404 31.2893 21.163 31.2893 20.5741C31.2893 19.9852 30.7838 19.5078 30.1603 19.5078C29.5367 19.5078 29.0312 19.9852 29.0312 20.5741C29.0312 21.163 29.5367 21.6404 30.1603 21.6404Z" fill="#625B53"/>
<path d="M10.4005 24.835H23.9489C24.2605 24.835 24.5134 24.5961 24.5134 24.3018V14.705C24.5134 14.4107 24.2605 14.1719 23.9489 14.1719H10.4005C10.0889 14.1719 9.83594 14.4107 9.83594 14.705V24.3018C9.83594 24.5961 10.0889 24.835 10.4005 24.835ZM10.965 15.2382H23.3843V23.7687H10.965V15.2382Z" fill="#625B53"/>
</svg>
