<svg width="40" height="40" viewBox="0 0 40 40" fill="none" xmlns="http://www.w3.org/2000/svg">
<g clip-path="url(#clip0_32_7938)">
<path d="M20.0568 29.5367C18.5985 29.5367 17.4121 28.3702 17.4121 26.9363C17.4121 25.5025 18.5985 24.3359 20.0568 24.3359C21.5151 24.3359 22.7015 25.5025 22.7015 26.9363C22.7015 28.3702 21.5151 29.5367 20.0568 29.5367ZM20.0568 25.9958C19.5293 25.9958 19.1002 26.4177 19.1002 26.9363C19.1002 27.4549 19.5293 27.8769 20.0568 27.8769C20.5843 27.8769 21.0134 27.4549 21.0134 26.9363C21.0134 26.4177 20.5843 25.9958 20.0568 25.9958Z" fill="#625B53"/>
<path d="M24.6403 23.3123C24.4243 23.3123 24.2083 23.2313 24.0435 23.0692C21.8451 20.9077 18.2682 20.9078 16.0698 23.0692C15.7402 23.3933 15.2058 23.3933 14.8761 23.0692C14.5465 22.7451 14.5465 22.2197 14.8761 21.8956C17.7327 19.0869 22.3806 19.0869 25.2372 21.8956C25.5668 22.2196 25.5668 22.7451 25.2372 23.0692C25.0723 23.2313 24.8563 23.3123 24.6403 23.3123Z" fill="#625B53"/>
<path d="M12.4163 20.3103C12.2003 20.3103 11.9842 20.2293 11.8195 20.0671C11.4899 19.743 11.4899 19.2176 11.8195 18.8935C14.0195 16.7304 16.9446 15.5391 20.0559 15.5391C23.1671 15.5391 26.0922 16.7304 28.2922 18.8935C28.6218 19.2176 28.6218 19.743 28.2922 20.0671C27.9626 20.3912 27.4282 20.3913 27.0985 20.0671C25.2174 18.2176 22.7162 17.1989 20.0559 17.1989C17.3955 17.1989 14.8943 18.2176 13.0132 20.0671C12.8483 20.2292 12.6323 20.3103 12.4163 20.3103Z" fill="#625B53"/>
<path d="M30.88 17.1229C30.664 17.1229 30.448 17.0419 30.2832 16.8798C27.5155 14.1585 23.8838 12.6598 20.0573 12.6598C16.2308 12.6598 12.5992 14.1585 9.83151 16.8798C9.50194 17.2039 8.96748 17.2039 8.63785 16.8798C8.30822 16.5557 8.30822 16.0302 8.63785 15.7061C11.7244 12.6713 15.7799 11 20.0573 11C24.3347 11 28.3902 12.6713 31.4768 15.7062C31.8065 16.0303 31.8065 16.5557 31.4768 16.8798C31.312 17.0419 31.096 17.1229 30.88 17.1229Z" fill="#625B53"/>
</g>
<defs>
<clipPath id="clip0_32_7938">
<rect width="24" height="19" fill="white" transform="translate(8 11)"/>
</clipPath>
</defs>
</svg>
