<svg width="40" height="40" viewBox="0 0 40 40" fill="none" xmlns="http://www.w3.org/2000/svg">
<path d="M30.8027 27.4803H10.1973C8.98569 27.4803 8 26.4946 8 25.283V14.1502C8 12.9386 8.98569 11.9529 10.1973 11.9529H30.8027C32.0143 11.9529 33 12.9387 33 14.1502V25.283C33 26.4946 32.0143 27.4803 30.8027 27.4803ZM10.1973 13.4178C9.79341 13.4178 9.46484 13.7464 9.46484 14.1502V25.283C9.46484 25.6869 9.79341 26.0154 10.1973 26.0154H30.8027C31.2066 26.0154 31.5352 25.6869 31.5352 25.283V14.1502C31.5352 13.7464 31.2066 13.4178 30.8027 13.4178H10.1973Z" fill="#625B53"/>
<path d="M13.4688 29.0426C13.0643 29.0426 12.7363 28.7147 12.7363 28.3102V26.7477C12.7363 26.3432 13.0643 26.0153 13.4688 26.0153C13.8732 26.0153 14.2012 26.3432 14.2012 26.7477V28.3102C14.2012 28.7147 13.8732 29.0426 13.4688 29.0426Z" fill="#625B53"/>
<path d="M27.5312 29.0426C27.1268 29.0426 26.7988 28.7147 26.7988 28.3102V26.7477C26.7988 26.3432 27.1268 26.0153 27.5312 26.0153C27.9357 26.0153 28.2637 26.3432 28.2637 26.7477V28.3102C28.2637 28.7147 27.9357 29.0426 27.5312 29.0426Z" fill="#625B53"/>
<path d="M15.4219 23.5739C13.2949 23.5739 11.5645 21.8435 11.5645 19.7164C11.5645 17.5894 13.2949 15.859 15.4219 15.859C17.5489 15.859 19.2793 17.5894 19.2793 19.7164C19.2793 21.8434 17.5489 23.5739 15.4219 23.5739ZM15.4219 17.3239C14.1026 17.3239 13.0293 18.3971 13.0293 19.7164C13.0293 21.0358 14.1026 22.109 15.4219 22.109C16.7412 22.109 17.8145 21.0358 17.8145 19.7164C17.8145 18.3971 16.7412 17.3239 15.4219 17.3239Z" fill="#625B53"/>
<path d="M22.0626 17.324C22.4672 17.324 22.7951 16.9961 22.7951 16.5915C22.7951 16.187 22.4672 15.859 22.0626 15.859C21.658 15.859 21.3301 16.187 21.3301 16.5915C21.3301 16.9961 21.658 17.324 22.0626 17.324Z" fill="#625B53"/>
<path d="M25.1876 17.3239C25.5922 17.3239 25.9201 16.9959 25.9201 16.5913C25.9201 16.1868 25.5922 15.8588 25.1876 15.8588C24.783 15.8588 24.4551 16.1868 24.4551 16.5913C24.4551 16.9959 24.783 17.3239 25.1876 17.3239Z" fill="#625B53"/>
<path d="M28.3126 17.3239C28.7172 17.3239 29.0451 16.9959 29.0451 16.5913C29.0451 16.1868 28.7172 15.8588 28.3126 15.8588C27.908 15.8588 27.5801 16.1868 27.5801 16.5913C27.5801 16.9959 27.908 17.3239 28.3126 17.3239Z" fill="#625B53"/>
<path d="M22.0626 20.4489C22.4672 20.4489 22.7951 20.1209 22.7951 19.7163C22.7951 19.3118 22.4672 18.9838 22.0626 18.9838C21.658 18.9838 21.3301 19.3118 21.3301 19.7163C21.3301 20.1209 21.658 20.4489 22.0626 20.4489Z" fill="#625B53"/>
<path d="M25.1876 20.4489C25.5922 20.4489 25.9201 20.1209 25.9201 19.7163C25.9201 19.3118 25.5922 18.9838 25.1876 18.9838C24.783 18.9838 24.4551 19.3118 24.4551 19.7163C24.4551 20.1209 24.783 20.4489 25.1876 20.4489Z" fill="#625B53"/>
<path d="M28.3126 20.4489C28.7172 20.4489 29.0451 20.1209 29.0451 19.7163C29.0451 19.3118 28.7172 18.9838 28.3126 18.9838C27.908 18.9838 27.5801 19.3118 27.5801 19.7163C27.5801 20.1209 27.908 20.4489 28.3126 20.4489Z" fill="#625B53"/>
<path d="M22.0626 23.5739C22.4672 23.5739 22.7951 23.2459 22.7951 22.8413C22.7951 22.4368 22.4672 22.1088 22.0626 22.1088C21.658 22.1088 21.3301 22.4368 21.3301 22.8413C21.3301 23.2459 21.658 23.5739 22.0626 23.5739Z" fill="#625B53"/>
<path d="M25.1876 23.5739C25.5922 23.5739 25.9201 23.2459 25.9201 22.8413C25.9201 22.4368 25.5922 22.1088 25.1876 22.1088C24.783 22.1088 24.4551 22.4368 24.4551 22.8413C24.4551 23.2459 24.783 23.5739 25.1876 23.5739Z" fill="#625B53"/>
<path d="M28.3126 23.5739C28.7172 23.5739 29.0451 23.2459 29.0451 22.8413C29.0451 22.4368 28.7172 22.1088 28.3126 22.1088C27.908 22.1088 27.5801 22.4368 27.5801 22.8413C27.5801 23.2459 27.908 23.5739 28.3126 23.5739Z" fill="#625B53"/>
</svg>
