<svg width="40" height="40" viewBox="0 0 40 40" fill="none" xmlns="http://www.w3.org/2000/svg">
<path d="M15.5995 11.9326C15.5995 12.3376 15.2712 12.6659 14.8661 12.6659C14.4611 12.6659 14.1328 12.3376 14.1328 11.9326C14.1328 11.5275 14.4611 11.1992 14.8661 11.1992C15.2712 11.1992 15.5995 11.5275 15.5995 11.9326Z" fill="#625B53"/>
<path d="M17.0673 12.6659C17.4723 12.6659 17.8007 12.3376 17.8007 11.9326C17.8007 11.5275 17.4723 11.1992 17.0673 11.1992C16.6623 11.1992 16.334 11.5275 16.334 11.9326C16.334 12.3376 16.6623 12.6659 17.0673 12.6659Z" fill="#625B53"/>
<path fill-rule="evenodd" clip-rule="evenodd" d="M19.9995 16.332C16.7594 16.332 14.1328 18.9586 14.1328 22.1987C14.1328 25.4388 16.7594 28.0654 19.9995 28.0654C23.2396 28.0654 25.8661 25.4388 25.8661 22.1987C25.8661 18.9586 23.2396 16.332 19.9995 16.332ZM15.5995 22.1987C15.5995 19.7687 17.5694 17.7987 19.9995 17.7987C22.4295 17.7987 24.3995 19.7687 24.3995 22.1987C24.3995 24.6287 22.4295 26.5987 19.9995 26.5987C17.5694 26.5987 15.5995 24.6287 15.5995 22.1987Z" fill="#625B53"/>
<path fill-rule="evenodd" clip-rule="evenodd" d="M11.1992 11.2C11.1992 9.98498 12.1842 9 13.3992 9H26.5992C27.8143 9 28.7992 9.98498 28.7992 11.2V28.8C28.7992 30.0151 27.8143 31 26.5992 31H13.3992C12.1842 31 11.1992 30.0151 11.1992 28.8V11.2ZM13.3992 10.4667C12.9942 10.4667 12.6659 10.795 12.6659 11.2V13.4H27.3326V11.2C27.3326 10.795 27.0042 10.4667 26.5992 10.4667H13.3992ZM12.6659 28.8V14.8667H27.3326V28.8C27.3326 29.205 27.0042 29.5333 26.5992 29.5333H13.3992C12.9942 29.5333 12.6659 29.205 12.6659 28.8Z" fill="#625B53"/>
</svg>
