<svg width="40" height="40" viewBox="0 0 40 40" fill="none" xmlns="http://www.w3.org/2000/svg">
<g clip-path="url(#clip0_32_8049)">
<path d="M29.0938 28.3125H26.7004C26.9984 27.8781 27.1406 27.3133 27.1406 26.75C27.1406 24.2672 26.3934 22.5379 25.9043 21.6719H26.5613C26.9094 22.1258 27.4922 23.0332 27.4922 24.0156C27.4922 24.6617 28.018 25.1875 28.6641 25.1875C29.3102 25.1875 29.8359 24.6617 29.8359 24.0156C29.8359 21.6 28.0074 19.7488 27.9301 19.6715C27.7086 19.45 27.4145 19.3281 27.1016 19.3281H25.5781V18.1562C25.5781 17.9406 25.4031 17.7656 25.1875 17.7656H24.4062V16.5938H25.9688C28.6629 16.5938 29.875 12.7105 29.875 9.95312L29.8754 9.84219C29.8773 9.26797 29.8648 8.80703 29.684 8.53047C29.4668 8.19844 29.1 8 28.7031 8H11.9062C10.8293 8 9.95312 8.87617 9.95312 9.95312V31.0469C9.95312 32.1238 10.8293 33 11.9062 33H29.0938C30.1707 33 31.0469 32.1238 31.0469 31.0469V30.2656C31.0469 29.1887 30.1707 28.3125 29.0938 28.3125ZM19.7188 16.5938V17.7656H18.1562C18.0207 17.7656 17.8949 17.8359 17.8238 17.9508C17.7527 18.066 17.7461 18.2098 17.8066 18.3309L18.3055 19.3281H18.1562C17.9406 19.3281 17.7656 19.5031 17.7656 19.7188V21.2812C17.7656 21.4973 17.9406 21.6719 18.1562 21.6719H18.2207C17.7316 22.5379 16.9844 24.2672 16.9844 26.75C16.9844 27.3133 17.1266 27.8781 17.4242 28.3125H16.5938C16.3785 28.3125 16.2031 28.1375 16.2031 27.9219V16.9844C16.2031 16.7691 16.3785 16.5938 16.5938 16.5938H19.7188ZM17.7656 26.75C17.7656 25.4953 17.9746 24.4469 18.2352 23.625H25.8898C26.1504 24.4469 26.3594 25.4957 26.3594 26.75C26.3594 27.0109 26.3027 28.3125 25.1875 28.3125H18.9375C17.8219 28.3125 17.7656 27.0109 17.7656 26.75ZM25.602 22.8438H18.523C18.768 22.2629 19.0078 21.8684 19.1395 21.6719H24.9852C25.1168 21.868 25.3566 22.2625 25.602 22.8438ZM27.3781 20.2242C27.4465 20.2926 29.0547 21.9207 29.0547 24.0156C29.0547 24.2313 28.8793 24.4062 28.6641 24.4062C28.4488 24.4062 28.2734 24.2313 28.2734 24.0156C28.2734 22.7121 27.5082 21.5871 27.0516 21.0328C26.9773 20.943 26.8668 20.8906 26.75 20.8906H18.5469V20.1094H27.1016C27.2043 20.1094 27.3047 20.1512 27.3781 20.2242ZM24.7969 19.3281H19.1789L18.7883 18.5469H24.7969V19.3281ZM23.625 17.7656H20.5V16.5938H23.625V17.7656ZM25.9688 15.8125H18.9375V10.3438H29.084C28.9824 12.6824 27.9863 15.8125 25.9688 15.8125ZM29.0277 8.95469C29.0758 9.04375 29.0891 9.32344 29.093 9.5625H18.9375V8.78125H28.7031C28.8352 8.78125 28.9574 8.84727 29.0277 8.95469ZM11.9062 8.78125H18.1562V15.8125H16.5938C15.9477 15.8125 15.4219 16.3383 15.4219 16.9844V27.9219C15.4219 28.568 15.9477 29.0938 16.5938 29.0938H29.0938C29.7398 29.0938 30.2656 29.6195 30.2656 30.2656H10.7344V9.95312C10.7344 9.30703 11.2602 8.78125 11.9062 8.78125ZM29.0938 32.2188H11.9062C11.2602 32.2188 10.7344 31.693 10.7344 31.0469H30.2656C30.2656 31.693 29.7398 32.2188 29.0938 32.2188Z" fill="#625B53"/>
</g>
<defs>
<clipPath id="clip0_32_8049">
<rect width="25" height="25" fill="white" transform="translate(8 8)"/>
</clipPath>
</defs>
</svg>
