<svg width="40" height="40" viewBox="0 0 40 40" fill="none" xmlns="http://www.w3.org/2000/svg">
<path d="M31.0469 13.8594C31.0459 12.9273 30.6752 12.0337 30.0161 11.3746C29.357 10.7155 28.4634 10.3448 27.5313 10.3438H23.5364C22.7346 9.41338 21.0005 8.78125 18.9376 8.78125C16.1986 8.78125 14.0364 9.8937 13.8751 11.3429C13.4747 11.7507 13.1236 12.347 12.8175 13.0781H10.3438C10.28 13.0781 10.2171 13.0937 10.1607 13.1237C10.1043 13.1536 10.0561 13.1968 10.0203 13.2497C9.98454 13.3025 9.96224 13.3633 9.95538 13.4268C9.94853 13.4903 9.95733 13.5544 9.98102 13.6137L11.5435 17.52C11.5588 17.5578 11.5799 17.5931 11.606 17.6244C10.8938 21.6645 10.7442 26.043 10.7344 26.3472C10.7344 26.3493 10.7355 26.3512 10.7355 26.3533C10.7354 26.3554 10.7344 26.3572 10.7344 26.3594C10.7348 26.8144 10.8488 27.262 11.066 27.6618C11.2832 28.0616 11.5968 28.4008 11.9783 28.6487C11.3738 28.9319 10.8624 29.3812 10.5038 29.9442C10.1452 30.5072 9.95422 31.1606 9.95319 31.8281C9.95319 31.9317 9.99435 32.0311 10.0676 32.1043C10.1409 32.1776 10.2402 32.2188 10.3438 32.2188H27.5313C27.6349 32.2188 27.7343 32.1776 27.8075 32.1043C27.8808 32.0311 27.9219 31.9317 27.9219 31.8281C27.9209 31.1606 27.7299 30.5072 27.3713 29.9442C27.0127 29.3812 26.5013 28.9319 25.8968 28.6487C26.2784 28.4008 26.5919 28.0616 26.8092 27.6618C27.0264 27.262 27.1403 26.8144 27.1407 26.3594C27.1407 26.3572 27.1395 26.3554 27.1395 26.3533C27.1395 26.3511 27.1406 26.3493 27.1405 26.3472C27.1378 26.2604 27.1231 25.8357 27.0877 25.1875H27.5313C28.4634 25.1865 29.357 24.8157 30.0161 24.1566C30.6752 23.4976 31.0459 22.604 31.0469 21.6719V13.8594ZM18.9376 9.5625C21.1157 9.5625 22.7259 10.3239 23.1338 11.125H14.7414C15.1492 10.3239 16.7594 9.5625 18.9376 9.5625ZM10.9208 13.8594H12.5245C12.2632 14.6427 12.0468 15.4402 11.8763 16.2481L10.9208 13.8594ZM27.1129 31.4375H10.7623C10.8571 30.7871 11.1826 30.1924 11.6795 29.7621C12.1764 29.3318 12.8115 29.0946 13.4688 29.0938H24.4063C25.0636 29.0946 25.6987 29.3318 26.1956 29.7621C26.6925 30.1924 27.0181 30.7871 27.1129 31.4375ZM24.4063 28.3125H13.4688C13.0188 28.3119 12.5827 28.1562 12.2341 27.8716C11.8855 27.5869 11.6456 27.1908 11.555 26.75H26.3204C26.2297 27.1909 25.9899 27.587 25.6412 27.8716C25.2925 28.1563 24.8564 28.312 24.4063 28.3125ZM11.5317 25.9688C11.5742 25.0242 11.7093 22.547 12.0503 19.9095C12.4458 16.8496 12.9371 14.8961 13.4209 13.6465C13.431 13.6263 13.4393 13.6053 13.4456 13.5837C13.7825 12.7296 14.1151 12.2107 14.4082 11.9062H23.467C24.1879 12.6551 25.1466 14.665 25.8248 19.9095C26.1658 22.547 26.3009 25.0242 26.3434 25.9688H11.5317ZM25.5725 14.5546C25.5733 14.5449 25.5782 14.5365 25.5782 14.5266V13.8594C25.5785 13.5487 25.7021 13.2508 25.9218 13.0311C26.1415 12.8114 26.4394 12.6878 26.7501 12.6875H27.5313C27.842 12.6878 28.1399 12.8114 28.3596 13.0311C28.5793 13.2508 28.7028 13.5487 28.7032 13.8594V21.6719C28.7028 21.9826 28.5793 22.2804 28.3596 22.5001C28.1399 22.7198 27.842 22.8434 27.5313 22.8438H26.9237C26.7142 20.376 26.3151 17.0831 25.5725 14.5546ZM30.2657 21.6719C30.2649 22.3968 29.9765 23.0918 29.4639 23.6044C28.9513 24.1171 28.2563 24.4054 27.5313 24.4062H27.0408C27.025 24.1615 27.0072 23.9028 26.9864 23.625H27.5313C28.0491 23.6244 28.5456 23.4184 28.9117 23.0523C29.2779 22.6861 29.4838 22.1897 29.4844 21.6719V13.8594C29.4838 13.3416 29.2779 12.8451 28.9117 12.479C28.5456 12.1128 28.0491 11.9069 27.5313 11.9062H26.7501C26.3899 11.9075 26.0371 12.0085 25.7309 12.1982C25.4248 12.3878 25.1771 12.6586 25.0155 12.9805C24.7195 12.2937 24.3821 11.7322 23.9999 11.3428C23.9918 11.2693 23.9786 11.1966 23.9604 11.125H27.5313C28.2563 11.1258 28.9513 11.4142 29.4639 11.9268C29.9765 12.4394 30.2649 13.1344 30.2657 13.8594V21.6719Z" fill="#625B53"/>
</svg>
