<svg width="24" height="24" viewBox="0 0 24 24" fill="none" xmlns="http://www.w3.org/2000/svg">
<path fill-rule="evenodd" clip-rule="evenodd" d="M4.28571 0.857143C4.28571 0.383756 4.66947 0 5.14286 0C5.61624 0 6 0.383756 6 0.857143V1.71429H18V0.857143C18 0.383756 18.3838 0 18.8571 0C19.3305 0 19.7143 0.383756 19.7143 0.857143V1.71429C22.0812 1.71429 24 3.63307 24 6H0C0 3.63307 1.91878 1.71429 4.28571 1.71429V0.857143ZM24 7.71429H0V19.7143C0 22.0812 1.91878 24 4.28571 24H19.7143C22.0812 24 24 22.0812 24 19.7143V7.71429ZM7.13773 20.1323C7.73773 20.4223 8.42272 20.5673 9.19273 20.5673C10.0327 20.5673 10.7727 20.4223 11.4127 20.1323C12.0527 19.8323 12.5427 19.4223 12.8827 18.9023C13.2327 18.3823 13.4077 17.7973 13.4077 17.1473C13.4077 16.3173 13.1277 15.6373 12.5677 15.1073C12.0177 14.5673 11.3077 14.2573 10.4377 14.1773C10.0877 14.1773 9.75772 14.2473 9.44773 14.3873L13.2277 10.9673V9.85727H5.51773V11.8523H10.5577L7.27273 14.7923L7.91773 15.5873L8.06773 15.4673C8.24774 15.3273 8.45272 15.2223 8.68273 15.1523C8.91273 15.0723 9.13773 15.0323 9.35773 15.0323C9.88773 15.0323 10.3127 15.2223 10.6327 15.6023C10.9627 15.9823 11.1277 16.4673 11.1277 17.0573C11.1277 17.6973 10.9277 18.2323 10.5277 18.6623C10.1277 19.0823 9.58273 19.2923 8.89273 19.2923C8.21272 19.2923 7.64272 19.0923 7.18273 18.6923C6.73273 18.2923 6.48273 17.7623 6.43273 17.1023H5.14273C5.17273 17.7723 5.36273 18.3723 5.71273 18.9023C6.06273 19.4223 6.53773 19.8323 7.13773 20.1323ZM14.1983 13.4723L16.4933 11.8973V20.3573H18.7133V9.85727H17.2583L14.1983 12.0323V13.4723Z" fill="#EEEEEE" fill-opacity="0.7"/>
</svg>
