<svg width="28" height="28" viewBox="0 0 28 28" fill="none" xmlns="http://www.w3.org/2000/svg">
<path fill-rule="evenodd" clip-rule="evenodd" d="M21.9806 14.5532C22.7416 13.2313 23.1762 11.702 23.1762 10.0723C23.1762 5.06183 19.0677 1 13.9997 1C8.93169 1 4.82324 5.06183 4.82324 10.0723C4.82324 11.702 5.25787 13.2313 6.01879 14.5532C6.16313 14.8039 6.31922 15.0472 6.48631 15.2823L13.9997 27L21.5131 15.2823C21.6802 15.0472 21.8363 14.8039 21.9806 14.5532ZM13.9995 16.3785C17.5224 16.3785 20.3782 13.555 20.3782 10.0721C20.3782 6.58917 17.5224 3.76571 13.9995 3.76571C10.4766 3.76571 7.62069 6.58917 7.62069 10.0721C7.62069 13.555 10.4766 16.3785 13.9995 16.3785Z" fill="url(#paint0_linear_51_1910)"/>
<defs>
<linearGradient id="paint0_linear_51_1910" x1="13.966" y1="1" x2="16.0392" y2="26.8363" gradientUnits="userSpaceOnUse">
<stop stop-color="#DBA104"/>
<stop offset="1" stop-color="#ECC65F"/>
</linearGradient>
</defs>
</svg>
