<svg width="138" height="140" viewBox="0 0 138 140" fill="none" xmlns="http://www.w3.org/2000/svg">
<path d="M69 139C107.108 139 138 108.108 138 70C138 31.8924 107.108 1 69 1C30.8924 1 0 31.8924 0 70C0 108.108 30.8924 139 69 139Z" fill="#EEEEEE"/>
<path d="M68.6631 36.3413V1.33643" stroke="#D09800" stroke-width="2" stroke-linecap="round"/>
<path d="M68.6631 138.663V105.005" stroke="#D09800" stroke-width="2" stroke-linecap="round"/>
<path d="M49.6203 89.4026H49.3638V82.1973C49.3638 81.6716 49.3487 81.3319 49.3177 81.1785C49.2914 81.025 49.2191 80.9112 49.1009 80.8365C48.9868 80.7621 48.7852 80.7247 48.4961 80.7247V80.4225C48.7546 80.4225 49.0659 80.3919 49.4294 80.3303C49.7933 80.269 50.041 80.2077 50.1723 80.1465H50.3106V84.4063C50.6173 84.13 50.9286 83.924 51.244 83.7883C51.5597 83.6524 51.8795 83.5844 52.2039 83.5844C52.9794 83.5844 53.6149 83.854 54.1103 84.3932C54.6055 84.9321 54.8532 85.6204 54.8532 86.4575C54.8532 87.2989 54.5991 88 54.0905 88.5611C53.5822 89.1219 52.9225 89.4026 52.1117 89.4026C51.7128 89.4026 51.3625 89.3191 51.0599 89.1525C50.762 88.9862 50.5122 88.7385 50.3106 88.4097C50.0255 88.6947 49.7956 89.0256 49.6203 89.4026ZM50.3106 84.7941V86.9044C50.3106 87.4477 50.3456 87.8402 50.4156 88.0811C50.4904 88.3178 50.6654 88.5456 50.9417 88.7648C51.2177 88.9839 51.5398 89.0936 51.9081 89.0936C52.4732 89.0936 52.9225 88.861 53.2557 88.3965C53.593 87.932 53.762 87.2636 53.762 86.3915C53.762 85.5894 53.6041 84.9805 53.2884 84.5642C52.9774 84.1434 52.561 83.9331 52.0393 83.9331C51.7414 83.9331 51.4479 84.0051 51.1585 84.1498C50.8737 84.2902 50.591 84.5049 50.3106 84.7941ZM60.9339 83.8015V87.3316C60.9339 87.9189 60.9427 88.2871 60.9602 88.4359C60.9777 88.585 61.0413 88.6968 61.151 88.7715C61.2648 88.8459 61.4664 88.8832 61.7559 88.8832V89.1855C61.0894 89.1942 60.6031 89.2642 60.2964 89.3959H60.2173C60.0773 89.1549 60.0026 88.7385 59.9938 88.1468C59.7266 88.5631 59.4196 88.8765 59.0736 89.0869C58.7317 89.2972 58.3527 89.4026 57.9363 89.4026C57.5768 89.4026 57.2591 89.3215 56.9831 89.1592C56.7071 88.9926 56.5163 88.791 56.4112 88.5544C56.3103 88.3178 56.2598 87.9607 56.2598 87.4827V85.6486C56.2598 85.0263 56.249 84.6473 56.2271 84.5113C56.2052 84.3713 56.1349 84.2683 56.0168 84.2023C55.9027 84.1367 55.6903 84.1037 55.3789 84.1037V83.8015H57.2066V87.5355C57.2066 87.9034 57.2285 88.171 57.2722 88.3373C57.316 88.5039 57.4277 88.6507 57.6075 88.7779C57.7872 88.9007 57.9955 88.962 58.2322 88.962C58.5694 88.962 58.8915 88.8523 59.1985 88.6332C59.5051 88.4097 59.7135 88.1754 59.8229 87.93C59.937 87.6799 59.9938 87.3252 59.9938 86.8647V85.6486C59.9938 85.0613 59.9875 84.7042 59.9743 84.5773C59.9612 84.4501 59.904 84.3403 59.8033 84.2485C59.7067 84.1522 59.5031 84.1037 59.1918 84.1037H59.0538V83.8015H60.9339ZM65.6606 83.8015H67.8299V84.1037C67.4314 84.1125 66.8965 84.4107 66.2261 84.998C66.0113 85.1818 65.6781 85.4514 65.2267 85.8065L67.1463 88.0549C67.4358 88.3922 67.6636 88.6136 67.8299 88.7186C67.9965 88.8196 68.1675 88.8745 68.3428 88.8832V89.1855H65.6606V88.8832C66.1076 88.8745 66.3311 88.7779 66.3311 88.5938C66.3311 88.5106 66.1843 88.2979 65.8908 87.9563L64.5102 86.3521L64.2274 86.5625V87.3383C64.2274 87.9122 64.2341 88.274 64.2473 88.4228C64.2648 88.5675 64.3284 88.6816 64.4378 88.7648C64.5475 88.8435 64.738 88.8832 65.01 88.8832V89.1855H62.2816V88.8832H62.4856C62.801 88.8832 63.0049 88.8391 63.0968 88.7516C63.1931 88.6597 63.248 88.552 63.2611 88.4295C63.2742 88.3023 63.2809 87.9388 63.2809 87.3383V81.9412C63.2809 81.4195 63.2305 81.0866 63.1298 80.9418C63.0332 80.7971 62.7966 80.7247 62.4196 80.7247V80.4225C62.6781 80.4225 62.9871 80.3919 63.3466 80.3303C63.7104 80.269 63.9582 80.2077 64.0894 80.1465H64.2274V86.201L64.7929 85.8065C65.7087 85.1579 66.1668 84.6911 66.1668 84.4063C66.1668 84.2134 65.9982 84.1125 65.6606 84.1037V83.8015ZM68.7831 86.4837C68.7831 85.6598 69.0594 84.9714 69.6114 84.4194C70.1638 83.8627 70.843 83.5844 71.6495 83.5844C72.4603 83.5844 73.1419 83.8627 73.6939 84.4194C74.2462 84.9758 74.5222 85.6641 74.5222 86.4837C74.5222 87.3908 74.2418 88.105 73.6808 88.6268C73.12 89.1437 72.4428 89.4026 71.6495 89.4026C70.8561 89.4026 70.1793 89.1394 69.6182 88.6136C69.0615 88.0832 68.7831 87.3733 68.7831 86.4837ZM69.8746 86.5164C69.8746 87.4719 70.0301 88.1424 70.3412 88.5281C70.6525 88.9095 71.0884 89.1 71.6495 89.1C72.2237 89.1 72.6619 88.9095 72.9642 88.5281C73.2711 88.1424 73.4246 87.4719 73.4246 86.5164C73.4246 85.5699 73.2731 84.895 72.9709 84.4918C72.6683 84.0886 72.2281 83.887 71.6495 83.887C71.0752 83.887 70.635 84.0886 70.328 84.4918C70.0258 84.8907 69.8746 85.5655 69.8746 86.5164ZM77.9012 89.4026H77.5198L75.607 85.0832C75.4185 84.6672 75.2694 84.4019 75.16 84.2878C75.0503 84.1741 74.8706 84.1125 74.6208 84.1037V83.8015H77.0533V84.1037C76.7861 84.1037 76.602 84.1256 76.501 84.1697C76.4047 84.2134 76.3563 84.2966 76.3563 84.4194C76.3563 84.5157 76.4441 84.7503 76.6195 85.1229L78.0722 88.3901L79.3805 85.4777C79.5865 85.0132 79.6895 84.7109 79.6895 84.5706C79.6895 84.2771 79.4704 84.1212 79.0321 84.1037V83.8015H80.8463V84.1037C80.6228 84.1168 80.4343 84.2111 80.2812 84.3865C80.1321 84.5574 79.9217 84.9452 79.6501 85.55L77.9012 89.4026ZM85.9281 85.6224H82.1745C82.157 85.8809 82.1479 86.0738 82.1479 86.201C82.1479 87.1475 82.295 87.8597 82.5885 88.3373C82.8867 88.8109 83.3293 89.0475 83.9163 89.0475C84.714 89.0475 85.2795 88.6904 85.6124 87.9758H85.9281C85.7877 88.4228 85.5094 88.7735 85.093 89.0276C84.677 89.2774 84.2233 89.4026 83.7325 89.4026C83.2765 89.4026 82.845 89.2885 82.4374 89.0606C82.0341 88.8284 81.7033 88.5019 81.4448 88.0811C81.1859 87.6604 81.0567 87.1498 81.0567 86.5493C81.0567 85.6991 81.3064 84.9936 81.8063 84.4326C82.3058 83.8671 82.9305 83.5844 83.6797 83.5844C84.3855 83.5844 84.9311 83.7991 85.3168 84.2286C85.7022 84.6581 85.9062 85.1229 85.9281 85.6224ZM84.7776 85.3595C84.7908 85.2585 84.7975 85.1687 84.7975 85.0899C84.7975 84.7042 84.6834 84.4063 84.4555 84.1959C84.232 83.9812 83.956 83.8738 83.6272 83.8738C82.8295 83.8738 82.3539 84.3689 82.2007 85.3595H84.7776ZM88.505 80.1465V87.3383C88.505 87.9122 88.5117 88.274 88.5248 88.4228C88.5423 88.5719 88.606 88.686 88.7153 88.7648C88.8251 88.8435 89.02 88.8832 89.3003 88.8832H89.4582V89.1855H86.579V88.8832H86.7628C87.026 88.8832 87.2122 88.8479 87.3219 88.7779C87.4356 88.7035 87.5036 88.6005 87.5255 88.4689C87.5474 88.3373 87.5585 87.9606 87.5585 87.3383V82.0132C87.5585 81.4481 87.508 81.093 87.4074 80.9482C87.3064 80.7995 87.061 80.7247 86.6709 80.7247V80.4225C86.9382 80.4225 87.2515 80.3919 87.611 80.3303C87.9749 80.269 88.2246 80.2077 88.3606 80.1465H88.505Z" fill="#625B53"/>
<path d="M29.3171 73.3118H28.2731C28.1176 72.6471 27.8619 72.0523 27.5066 71.5265C26.9437 72.1373 26.2997 72.6626 25.5739 73.1033C24.8481 73.5436 23.8669 73.7637 22.6303 73.7637C21.2751 73.7637 20.0162 73.4201 18.8536 72.7321C17.6984 72.0445 16.7764 71.0863 16.0877 69.8574C15.399 68.6213 15.0547 67.2301 15.0547 65.6845C15.0547 64.5873 15.2398 63.5401 15.6101 62.5431C15.9877 61.5464 16.5209 60.6694 17.2096 59.9118C17.9057 59.1548 18.7314 58.5596 19.6867 58.1266C20.6494 57.6941 21.7009 57.4775 22.8413 57.4775C24.7223 57.4775 26.2774 58.1189 27.5066 59.4017C27.6696 59.0697 27.8289 58.5868 27.9844 57.9531H28.9841L29.1615 63.7369H28.0952C27.9029 62.7558 27.5546 61.8827 27.0513 61.1174C26.5475 60.3525 25.9477 59.769 25.2517 59.3671C24.5631 58.9575 23.841 58.7529 23.0857 58.7529C22.2415 58.7529 21.4824 58.9964 20.8086 59.4828C20.1347 59.9619 19.6052 60.6961 19.2201 61.6854C18.8425 62.6747 18.6536 63.907 18.6536 65.3832C18.6536 66.8205 18.8129 68.0183 19.1313 68.9765C19.4497 69.9269 19.8422 70.6456 20.3087 71.1325C20.7826 71.6193 21.2566 71.9517 21.7305 72.1295C22.2044 72.2996 22.6488 72.3846 23.0635 72.3846C23.9743 72.3846 24.7926 72.1295 25.5183 71.6193C26.2513 71.1092 26.8511 70.4678 27.3176 69.6951C27.7842 68.9148 28.0952 68.1417 28.2507 67.3769H29.3171V73.3118ZM48.9114 73.4741H41.5026V72.4075C42.1098 72.4075 42.5689 72.338 42.88 72.199C43.191 72.06 43.3908 71.8589 43.4797 71.596C43.5687 71.3336 43.6129 70.9857 43.6129 70.5528V65.8351H36.6261V70.5528C36.6261 71.202 36.756 71.6733 37.0149 71.9672C37.2742 72.2607 37.8665 72.4075 38.7922 72.4075V73.4741H31.3276V72.4075C31.9274 72.4075 32.3832 72.338 32.6938 72.199C33.0123 72.06 33.2162 71.8628 33.3052 71.6077C33.4011 71.3453 33.4495 70.9935 33.4495 70.5528V60.6771C33.4495 60.2364 33.4048 59.8924 33.3159 59.6451C33.2274 59.3904 33.0309 59.1893 32.7273 59.0426C32.4237 58.8958 31.9572 58.8224 31.3276 58.8224V57.7559H38.7922V58.8224C37.874 58.8224 37.2817 58.9653 37.0149 59.251C36.756 59.5372 36.6261 60.0124 36.6261 60.6771V64.5484H43.6129V60.6771C43.6129 60.2364 43.5724 59.8924 43.4909 59.6451C43.4094 59.3904 43.2171 59.1893 42.9131 59.0426C42.6095 58.8958 42.1396 58.8224 41.5026 58.8224V57.7559H48.9114V58.8224C48.2822 58.8224 47.8157 58.8958 47.5121 59.0426C47.2085 59.1893 47.012 59.3904 46.9231 59.6451C46.8416 59.8924 46.8011 60.2364 46.8011 60.6771V70.5528C46.8011 70.9779 46.8379 71.3181 46.9119 71.5732C46.9934 71.8205 47.1899 72.0212 47.5009 72.1757C47.812 72.3302 48.2822 72.4075 48.9114 72.4075V73.4741ZM64.9403 73.4741H57.8422V72.4075C58.4419 72.4075 58.8791 72.3652 59.1529 72.2802C59.4272 72.1874 59.5641 71.975 59.5641 71.6427C59.5641 71.4109 59.5194 71.1752 59.4309 70.9356L58.7199 69.0809H53.8322L53.4657 70.1009C53.2585 70.6728 53.1547 71.0863 53.1547 71.3414C53.1547 71.8049 53.3251 72.0985 53.6659 72.2223C54.0137 72.3458 54.4174 72.4075 54.8766 72.4075V73.4741H49.689V72.4075C50.1038 72.4075 50.4554 72.3264 50.7445 72.1641C51.0332 72.0018 51.307 71.6966 51.5664 71.2486C51.8327 70.7923 52.1181 70.1509 52.4217 69.3244L56.7647 57.4546H57.8203L62.4077 69.6951C62.7411 70.5606 62.9851 71.148 63.1406 71.4571C63.2962 71.7583 63.5108 71.994 63.785 72.1641C64.0589 72.3264 64.4439 72.4075 64.9403 72.4075V73.4741ZM58.3199 67.9449L56.2427 62.4619L54.2656 67.9449H58.3199ZM79.2138 68.2229L79.1137 73.4741H65.6955V72.4075C66.6212 72.4075 67.2173 72.2685 67.484 71.9901C67.7504 71.7121 67.884 71.233 67.884 70.5528V60.6771C67.884 60.2209 67.8393 59.8696 67.7504 59.6222C67.6615 59.3671 67.4543 59.1699 67.1283 59.0309C66.8102 58.8919 66.3325 58.8224 65.6955 58.8224V57.7559H73.271V58.8224C72.6418 58.8224 72.1641 58.888 71.8382 59.0192C71.5197 59.1509 71.3088 59.3438 71.2049 59.5989C71.109 59.8462 71.0606 60.2054 71.0606 60.6771V69.7185C71.0606 70.4293 71.0941 70.9395 71.1607 71.2486C71.2273 71.5576 71.4089 71.7933 71.705 71.9556C72.0012 72.1101 72.4863 72.1874 73.1601 72.1874C74.0117 72.1874 74.7558 72.1218 75.3928 71.9901C76.0372 71.8511 76.6295 71.492 77.1701 70.9123C77.7182 70.3249 78.0586 69.4284 78.1918 68.2229H79.2138ZM93.9432 68.304L93.8207 73.4741H80.4025V72.4075C81.3282 72.4075 81.9242 72.2685 82.1906 71.9901C82.4574 71.7121 82.5906 71.233 82.5906 70.5528V60.6771C82.5906 60.2287 82.5463 59.8808 82.4574 59.6339C82.3759 59.3788 82.1761 59.1815 81.8577 59.0426C81.5466 58.8958 81.0614 58.8224 80.4025 58.8224V57.7559H92.8988L93.099 61.8361H92.0769C91.8474 60.9318 91.5806 60.2865 91.277 59.9002C90.9808 59.5061 90.6437 59.2666 90.2661 59.1815C89.8959 59.0887 89.3367 59.0426 88.5889 59.0426H85.7676V64.595H87.3005C87.8262 64.595 88.2187 64.5484 88.478 64.4556C88.737 64.3555 88.9185 64.1699 89.0223 63.8992C89.1257 63.629 89.1961 63.2039 89.2333 62.6242H90.2996V67.8521H89.2775C89.2482 67.2724 89.1741 66.8477 89.0554 66.5771C88.9371 66.2987 88.7481 66.1135 88.4888 66.0207C88.2373 65.9279 87.8485 65.8817 87.3228 65.8817H85.7676V69.5795C85.7676 70.1976 85.7825 70.6495 85.8118 70.9356C85.8416 71.2214 85.9194 71.4609 86.0451 71.6543C86.1787 71.8395 86.3897 71.975 86.6784 72.06C86.9745 72.1451 87.3931 72.1874 87.9337 72.1874H89.1444C89.6552 72.1874 90.1403 72.1218 90.5995 71.9901C91.066 71.8511 91.5214 71.5037 91.9656 70.9473C92.4099 70.3832 92.7209 69.5022 92.8988 68.304H93.9432ZM110.283 62.2185H109.228C109.131 61.2447 108.924 60.5261 108.605 60.0625C108.294 59.5989 107.957 59.3132 107.595 59.2048C107.232 59.0965 106.813 59.0426 106.339 59.0426H104.429V70.5528C104.429 71.009 104.473 71.3643 104.562 71.6193C104.651 71.8667 104.858 72.06 105.184 72.199C105.51 72.338 105.988 72.4075 106.617 72.4075V73.4741H99.0637V72.4075C99.9894 72.4075 100.585 72.2685 100.852 71.9901C101.119 71.7121 101.252 71.233 101.252 70.5528V59.0426H99.6523C99.0228 59.0426 98.5008 59.0965 98.0864 59.2048C97.6715 59.3054 97.305 59.5911 96.9865 60.0625C96.6755 60.5261 96.4977 61.2447 96.4534 62.2185H95.3983V57.7559H110.283V62.2185ZM122.946 68.9648C122.946 69.4517 122.846 69.9697 122.646 70.5183C122.446 71.0591 122.142 71.5809 121.735 72.0829C121.335 72.5776 120.828 72.9833 120.213 73.3001C119.599 73.6092 118.888 73.7637 118.08 73.7637C117.281 73.7637 116.484 73.5824 115.692 73.219C114.907 72.856 114.241 72.3147 113.693 71.596C113.456 72.1679 113.304 72.6976 113.237 73.1844H112.216V67.8059H113.237C113.422 68.5785 113.678 69.305 114.004 69.9852C114.33 70.665 114.789 71.2525 115.381 71.7471C115.981 72.2336 116.714 72.477 117.581 72.477C118.336 72.477 118.939 72.2607 119.391 71.8283C119.85 71.3953 120.08 70.8506 120.08 70.1937C120.08 69.8229 120.009 69.4983 119.869 69.2199C119.728 68.942 119.525 68.6946 119.258 68.478C118.991 68.2539 118.625 68.0183 118.158 67.7709C117.699 67.5159 117.173 67.2495 116.581 66.9711C115.67 66.5231 114.922 66.0708 114.337 65.615C113.752 65.1592 113.308 64.7185 113.004 64.2933C112.708 63.8608 112.501 63.4512 112.382 63.0649C112.271 62.6786 112.216 62.288 112.216 61.8939C112.216 61.1908 112.397 60.4993 112.76 59.8191C113.123 59.1315 113.652 58.5712 114.348 58.1383C115.052 57.698 115.862 57.4775 116.781 57.4775C117.484 57.4775 118.154 57.6436 118.791 57.976C119.428 58.3006 119.98 58.749 120.447 59.3205C120.58 58.9964 120.702 58.5401 120.813 57.9531H121.857V62.3346H120.813C120.073 59.9468 118.784 58.7529 116.947 58.7529C116.281 58.7529 115.744 58.9381 115.337 59.3093C114.937 59.6723 114.737 60.1436 114.737 60.7233C114.737 61.1791 114.863 61.5771 115.115 61.9172C115.366 62.2496 115.696 62.5353 116.103 62.7748C116.518 63.0144 117.184 63.3584 118.103 63.8069C119.214 64.3555 120.08 64.8307 120.702 65.2325C121.331 65.6344 121.861 66.1403 122.29 66.751C122.727 67.3613 122.946 68.0994 122.946 68.9648Z" fill="#202020"/>
</svg>
