<svg width="36" height="36" viewBox="0 0 36 36" fill="none" xmlns="http://www.w3.org/2000/svg">
<rect width="36" height="36" rx="10" fill="url(#paint0_linear_58_362)"/>
<path d="M23.5724 5H12.4276C11.361 5 10.5 5.84892 10.5 6.89396V29.1079C10.5 30.152 11.361 31 12.4276 31H23.5724C24.6371 31 25.5 30.152 25.5 29.1079V6.89396C25.5 5.84892 24.6371 5 23.5724 5ZM15.25 6.15021H20.7519C20.8909 6.15021 21.0039 6.35391 21.0039 6.60593C21.0039 6.85796 20.8909 7.0626 20.7519 7.0626H15.25C15.11 7.0626 14.999 6.85796 14.999 6.60593C14.999 6.35391 15.11 6.15021 15.25 6.15021ZM18.001 29.1307C17.3224 29.1307 16.7703 28.5887 16.7703 27.9217C16.7703 27.2547 17.3224 26.7147 18.001 26.7147C18.6776 26.7147 19.2297 27.2547 19.2297 27.9217C19.2297 28.5887 18.6776 29.1307 18.001 29.1307ZM24.056 24.9913H11.945V8.19576H24.056V24.9913Z" fill="#222222"/>
<defs>
<linearGradient id="paint0_linear_58_362" x1="17.9338" y1="-1.83678e-08" x2="19.9667" y2="35.8886" gradientUnits="userSpaceOnUse">
<stop stop-color="#DBA104"/>
<stop offset="1" stop-color="#ECC65F"/>
</linearGradient>
</defs>
</svg>
